<svg xmlns="http://www.w3.org/2000/svg" version="1.1" xmlns:xlink="http://www.w3.org/1999/xlink" xmlns:svgjs="http://svgjs.dev/svgjs" width="1000" height="1125" viewBox="0 0 1000 1125"><g transform="matrix(1,0,0,1,0.000017792444282349607,0)"><svg viewBox="0 0 320 360" data-background-color="#ffffff" preserveAspectRatio="xMidYMid meet" height="1125" width="1000" xmlns="http://www.w3.org/2000/svg" xmlns:xlink="http://www.w3.org/1999/xlink"><g id="tight-bounds" transform="matrix(1,0,0,1,0.000005693582238563977,0)"><svg viewBox="0 0 320 360" height="360" width="320"><g><svg></svg></g><g><svg viewBox="0 0 320 360" height="360" width="320"><g><path transform="translate(-8.74414,11.24127) scale(3.37517,3.37517)" d="M89.9 29.89c-2.6-3.17-7.52-4.8-12.74-6.52-2.24-0.74-4.55-1.51-6.81-2.44-2.28-0.94-4.52-2.15-6.7-3.31-4.43-2.38-9.01-4.84-13.66-4.84-4.64 0-9.22 2.46-13.65 4.84-2.18 1.17-4.43 2.38-6.71 3.32-2.25 0.93-4.57 1.69-6.81 2.44-5.22 1.73-10.14 3.36-12.74 6.52-3.47 4.23-3.39 10.5-3.31 17.13 0.01 1 0.02 1.99 0.02 2.97 0 0.98-0.01 1.97-0.03 2.97-0.08 6.64-0.16 12.9 3.31 17.14 2.6 3.16 7.52 4.79 12.73 6.52 2.24 0.74 4.55 1.51 6.82 2.44 2.28 0.94 4.52 2.14 6.69 3.31 4.44 2.39 9.02 4.85 13.66 4.85 4.65 0 9.23-2.46 13.66-4.84 2.18-1.17 4.42-2.38 6.7-3.31 2.25-0.93 4.55-1.69 6.78-2.43 5.25-1.74 10.17-3.37 12.77-6.53 3.47-4.23 3.39-10.5 3.31-17.13-0.01-1.01-0.03-2-0.03-2.98 0-0.98 0.01-1.97 0.03-2.96 0.11-6.66 0.19-12.93-3.29-17.16zM93.12 27.25c-4.66-5.68-13.57-7.03-21.18-10.17-6.81-2.8-13.74-8.47-21.94-8.47-8.2 0-15.13 5.67-21.94 8.47-7.62 3.14-16.52 4.49-21.18 10.17-5.06 6.16-4.24 14.85-4.24 22.75 0 7.89-0.82 16.59 4.23 22.75 4.66 5.68 13.57 7.03 21.18 10.17 6.81 2.81 13.74 8.47 21.94 8.47 8.2 0 15.13-5.66 21.94-8.47 7.62-3.14 16.52-4.49 21.18-10.17 5.05-6.16 4.23-14.85 4.23-22.75 0.02-7.9 0.84-16.59-4.22-22.75zM94.4 52.94c0.09 6.88 0.17 13.35-3.58 17.92-2.82 3.43-7.9 5.12-13.28 6.9-2.24 0.74-4.53 1.5-6.73 2.41-2.22 0.91-4.43 2.1-6.57 3.25-4.58 2.46-9.29 4.99-14.24 4.99-4.95 0-9.66-2.53-14.22-4.98-2.15-1.16-4.37-2.35-6.59-3.26-2.23-0.92-4.52-1.68-6.74-2.41-5.39-1.78-10.47-3.47-13.28-6.9-3.74-4.56-3.66-11.04-3.58-17.9 0.01-1 0.03-1.98 0.03-2.96 0-0.98-0.01-1.96-0.02-2.96-0.09-6.86-0.17-13.34 3.58-17.9 2.82-3.43 7.9-5.11 13.28-6.9 2.23-0.74 4.52-1.5 6.74-2.41 2.22-0.92 4.44-2.11 6.59-3.26 4.56-2.45 9.28-4.99 14.22-4.99 4.94 0 9.66 2.53 14.22 4.98 2.15 1.16 4.37 2.35 6.59 3.26 2.22 0.92 4.52 1.67 6.73 2.41 5.38 1.78 10.47 3.47 13.28 6.9 3.75 4.57 3.67 11.04 3.58 17.9-0.01 1.01-0.03 1.99-0.03 2.96 0 0.98 0.01 1.96 0.02 2.95z" fill="#4d331f" fill-rule="nonzero" stroke="none" stroke-width="1" stroke-linecap="butt" stroke-linejoin="miter" stroke-miterlimit="10" stroke-dasharray="" stroke-dashoffset="0" font-family="none" font-weight="none" font-size="none" text-anchor="none" style="mix-blend-mode: normal" data-fill-palette-color="tertiary"></path></g><g transform="matrix(1,0,0,1,64,114.81550056638685)"><svg viewBox="0 0 192 130.3689988672263" height="130.3689988672263" width="192"><g><svg viewBox="0 0 192.95999999999998 131.0208438615624" height="130.3689988672263" width="192"><g><rect width="192.95999999999998" height="4.0129953998174495" x="0" y="72.00329604295301" fill="#e6b17e" opacity="1" stroke-width="0" stroke="transparent" fill-opacity="1" class="rect-in-0" data-fill-palette-color="secondary" rx="1%" id="in-0" data-palette-color="#e6b17e"></rect></g><g transform="matrix(1,0,0,1,0.47999999999998977,86.52151500250201)"><svg viewBox="0 0 192 44.4993288590604" height="44.4993288590604" width="192"><g><svg viewBox="0 0 192 44.4993288590604" height="44.4993288590604" width="192"><g><svg viewBox="0 0 192 44.4993288590604" height="44.4993288590604" width="192"><g transform="matrix(1,0,0,1,0,0)"><svg width="192" viewBox="2.05 -38.75 223.48 51.8" height="44.4993288590604" data-palette-color="#ffffff"><path d="M22.7-17.15Q26.05-16.6 27.18-14.83 28.3-13.05 28.3-10.65L28.3-10.65Q28.3-10.15 28.25-9.9L28.25-9.9Q27.3-3.8 23.15-1.23 19 1.35 13.35 1.35L13.35 1.35Q11.9 1.35 10.23 1.03 8.55 0.7 7.5 0.1L7.5 0.1Q6.75 0.65 4.7 0.65L4.7 0.65Q3.35 0.65 2.8-0.43 2.25-1.5 2.25-3.05L2.25-3.05Q2.25-3.6 2.4-4.1L2.4-4.1 8-26.5Q4.45-25.3 3.6-24L3.6-24Q2.05-25.65 2.05-27.05L2.05-27.05Q2.05-28.15 2.9-29.3L2.9-29.3Q4.9-30.6 9.4-31.75L9.4-31.75Q9.8-32.8 10.43-33.2 11.05-33.6 12.3-33.6L12.3-33.6Q13.35-33.6 14.28-33.4 15.2-33.2 15.6-32.8L15.6-32.8Q18-33.1 20.45-33.1L20.45-33.1Q25.55-33.1 27.95-31.08 30.35-29.05 30.35-25.45L30.35-25.45Q30.35-22.4 28.2-20.23 26.05-18.05 22.7-17.15L22.7-17.15ZM12.55-18.45Q23.5-19.35 23.5-24.85L23.5-24.85Q23.5-26.4 22.55-27.28 21.6-28.15 19.3-28.15L19.3-28.15Q17.25-28.15 14.75-27.9L14.75-27.9 12.55-18.45ZM12.7-3.5Q14.95-3.5 17.07-4.33 19.2-5.15 20.55-6.68 21.9-8.2 21.9-10.25L21.9-10.25Q21.9-11.95 20.73-13.18 19.55-14.4 17.45-14.4L17.45-14.4Q13.5-14.4 11.75-14.1L11.75-14.1Q10.95-11.4 9.1-4.1L9.1-4.1Q10.7-3.5 12.7-3.5L12.7-3.5ZM41.65 1.05Q36.75 1.05 34.5-0.9 32.25-2.85 32.25-6.1L32.25-6.1Q32.25-10.85 34.62-14.9 37-18.95 40.97-21.33 44.95-23.7 49.55-23.7L49.55-23.7Q52.35-23.7 54.25-22.13 56.15-20.55 56.15-17.5L56.15-17.5Q56.15-15.75 55.02-14.63 53.9-13.5 51.8-12.63 49.7-11.75 45-10.15L45-10.15Q40.75-8.75 38.1-7.8L38.1-7.8Q37.9-7.05 37.9-6.25L37.9-6.25Q37.9-4.85 39.07-4.1 40.25-3.35 42.4-3.35L42.4-3.35Q43.75-3.35 45.5-3.9 47.25-4.45 47.7-5.3L47.7-5.3Q49.4-8.4 50.8-8.4L50.8-8.4Q52.85-8.4 53.57-7.63 54.3-6.85 54.35-5.9L54.35-5.9Q53.75-4.3 52-2.68 50.25-1.05 47.55 0 44.85 1.05 41.65 1.05L41.65 1.05ZM39.5-12.4Q44.45-14 47.65-15.38 50.85-16.75 50.85-18.1L50.85-18.1Q50.85-18.7 50.2-19.07 49.55-19.45 48.8-19.45L48.8-19.45Q47.3-19.45 45.37-18.3 43.45-17.15 41.8-15.5 40.15-13.85 39.5-12.4L39.5-12.4ZM77.34-2.6Q77.45-1.3 77.7-0.25L77.7-0.25Q77.59 0.05 76.82 0.35 76.05 0.65 75.5 0.65L75.5 0.65Q73.7 0.65 72.92 0.13 72.15-0.4 72.15-1.45L72.15-1.45Q72.15-2.45 72.34-3.45L72.34-3.45Q71.25-1.95 69.12-0.98 67 0 65.7 0L65.7 0Q62.35 0 60.12-1.95 57.9-3.9 57.9-8.2L57.9-8.2Q57.9-12.25 59.82-15.83 61.75-19.4 65.15-21.58 68.55-23.75 72.7-23.75L72.7-23.75Q73.5-23.75 74.8-23.33 76.09-22.9 77.42-21.88 78.75-20.85 79.65-19.25L79.65-19.25Q80.05-19.25 80.59-18.85 81.15-18.45 81.15-18.05L81.15-18.05Q81.15-17.6 81-17.15L81-17.15 77.34-2.6ZM75.09-16.6Q74.8-17.7 73.92-18.45 73.05-19.2 72.34-19.2L72.34-19.2Q70.05-19.2 68.02-17.57 66-15.95 64.75-13.55 63.5-11.15 63.5-9L63.5-9Q63.5-6.9 64-5.55 64.5-4.2 65.95-4.2L65.95-4.2Q67.2-4.2 68.82-4.95 70.45-5.7 71.72-6.98 73-8.25 73.4-9.65L73.4-9.65 75.09-16.6ZM86.49-22.85Q86.34-23 86.34-23.2L86.34-23.2Q86.34-23.7 87.44-24.03 88.54-24.35 90.49-24.35L90.49-24.35Q92.29-24.35 93.14-23.43 93.99-22.5 94.14-21.2L94.14-21.2 93.24-17.95Q94.29-19.4 96.19-20.73 98.09-22.05 100.04-22.85 101.99-23.65 103.24-23.65L103.24-23.65Q105.89-23.65 107.09-22.68 108.29-21.7 108.29-19.6L108.29-19.6Q105.34-11.9 104.39-3L104.39-3 105.09-0.55Q104.49 0.6 103.42 1.28 102.34 1.95 100.29 1.95L100.29 1.95Q99.09 1.95 98.54 1.15 97.99 0.35 97.99-0.85L97.99-0.85Q97.99-4.2 98.97-8.22 99.94-12.25 101.24-16.45L101.24-16.45Q101.74-18.05 101.74-18.1L101.74-18.1Q101.74-18.8 100.94-18.8L100.94-18.8Q99.84-18.8 97.62-17.25 95.39-15.7 93.04-12.03 90.69-8.35 89.24-2.4L89.24-2.4Q89.14-2.1 88.99-1.3 88.84-0.5 88.19-0.18 87.54 0.15 86.09 0.15L86.09 0.15Q84.44 0.15 83.67-0.2 82.89-0.55 82.89-1.7L82.89-1.7Q83.04-2.4 83.34-3.4L83.34-3.4Q86.24-15.05 87.79-21.35L87.79-21.35 86.49-22.85ZM119.89 1.05Q115.49 1.05 113.04-1.95 110.59-4.95 110.59-9.6L110.59-9.6Q110.59-13.5 112.47-16.95 114.34-20.4 117.59-22.5 120.84-24.6 124.74-24.6L124.74-24.6Q128.59-24.6 131.06-22.08 133.54-19.55 133.54-14.65L133.54-14.65Q133.54-11.2 131.64-7.5 129.74-3.8 126.57-1.38 123.39 1.05 119.89 1.05L119.89 1.05ZM120.64-2.95Q122.24-2.95 123.87-4.95 125.49-6.95 126.54-10 127.59-13.05 127.59-15.95L127.59-15.95Q127.59-20.4 123.89-20.4L123.89-20.4Q121.84-20.4 120.14-18.45 118.44-16.5 117.44-13.63 116.44-10.75 116.44-8.25L116.44-8.25Q116.44-6.8 117.09-5.58 117.74-4.35 118.72-3.65 119.69-2.95 120.64-2.95L120.64-2.95ZM149.84-35.85L147.74-27.2Q142.09-3.45 141.09-0.05L141.09-0.05Q140.99 0.25 140.06 0.73 139.14 1.2 138.79 1.2L138.79 1.2Q137.39 1.2 136.09 0.5 134.79-0.2 134.69-1.75L134.69-1.75Q134.74-1.85 135.19-2.8 135.64-3.75 136.09-5.5L136.09-5.5Q137.24-9.8 138.71-15.7 140.19-21.6 140.69-23.6L140.69-23.6 143.04-33.15Q142.99-33.55 142.99-37.3L142.99-37.3Q143.14-37.95 144.11-38.35 145.09-38.75 145.89-38.75L145.89-38.75Q147.14-38.75 148.46-37.9 149.79-37.05 149.84-35.85L149.84-35.85ZM159.53 1.05Q155.13 1.05 152.69-1.95 150.24-4.95 150.24-9.6L150.24-9.6Q150.24-13.5 152.11-16.95 153.99-20.4 157.24-22.5 160.49-24.6 164.38-24.6L164.38-24.6Q168.24-24.6 170.71-22.08 173.19-19.55 173.19-14.65L173.19-14.65Q173.19-11.2 171.28-7.5 169.38-3.8 166.21-1.38 163.03 1.05 159.53 1.05L159.53 1.05ZM160.28-2.95Q161.88-2.95 163.51-4.95 165.13-6.95 166.19-10 167.24-13.05 167.24-15.95L167.24-15.95Q167.24-20.4 163.53-20.4L163.53-20.4Q161.49-20.4 159.78-18.45 158.09-16.5 157.09-13.63 156.09-10.75 156.09-8.25L156.09-8.25Q156.09-6.8 156.74-5.58 157.38-4.35 158.36-3.65 159.34-2.95 160.28-2.95L160.28-2.95ZM180.78 11.35Q178.48 11.35 176.46 10.35 174.43 9.35 173.06 7.78 171.68 6.2 171.08 4.6L171.08 4.6Q171.13 3.7 171.96 2.83 172.78 1.95 174.83 1.95L174.83 1.95Q175.48 1.95 175.96 2.45 176.43 2.95 177.03 4.05L177.03 4.05Q177.83 5.55 178.71 6.38 179.58 7.2 181.13 7.2L181.13 7.2Q182.88 7.2 184.51 5.83 186.13 4.45 187.31 2.1 188.48-0.25 188.93-3.1L188.93-3.1Q187.83-1.6 186.41-0.8 184.98 0 183.73 0L183.73 0Q179.73 0 177.41-1.78 175.08-3.55 175.08-8.1L175.08-8.1Q175.08-12.2 177.36-15.75 179.63-19.3 183.43-21.4 187.23-23.5 191.58-23.5L191.58-23.5Q194.43-23.5 195.81-22.35 197.18-21.2 197.48-19.45L197.48-19.45Q198.33-19.05 198.38-18.65L198.38-18.65Q198.38-18.5 198.18-17.6L198.18-17.6Q197.23-13.5 194.18-1.4L194.18-1.4 193.63 0.8Q192.38 5.65 188.86 8.5 185.33 11.35 180.78 11.35L180.78 11.35ZM192.08-18.35Q191.68-19.05 191.31-19.25 190.93-19.45 190.18-19.45L190.18-19.45Q187.83-19.45 185.63-17.93 183.43-16.4 182.08-13.98 180.73-11.55 180.73-9L180.73-9Q180.73-7.15 181.41-5.8 182.08-4.45 183.58-4.25L183.58-4.25Q185.58-4.6 187.36-6.05 189.13-7.5 189.78-9.8L189.78-9.8 192.08-18.35ZM214.58-2.1Q212.88-0.5 211.28 0.28 209.68 1.05 207.68 1.05L207.68 1.05Q204.38 1.05 202.61-1 200.83-3.05 200.83-6.45L200.83-6.45Q200.83-7.45 201.13-8.65L201.13-8.65 204.48-21.7Q204.78-22.8 205.56-23.33 206.33-23.85 208.08-23.85L208.08-23.85Q210.68-23.85 210.68-22.4L210.68-22.4Q210.68-21.8 210.33-20.5L210.33-20.5 206.98-7.1Q206.83-6.5 206.83-5.9L206.83-5.9Q206.83-4.85 207.38-4.2 207.93-3.55 209.13-3.55L209.13-3.55Q210.68-3.55 212.48-4.45 214.28-5.35 215.53-6.65L215.53-6.65 216.48-10.6Q217.43-14.6 218.68-19.25L218.68-19.25Q219.23-21.25 220.11-22.53 220.98-23.8 222.88-23.8L222.88-23.8Q225.53-23.8 225.53-22.2L225.53-22.2Q225.53-21.95 225.41-21.58 225.28-21.2 225.23-20.95L225.23-20.95 223.58-14.1Q220.98-3.2 220.18-0.15L220.18-0.15Q218.88 4.85 217.23 7.7 215.58 10.55 213.11 11.8 210.63 13.05 206.78 13.05L206.78 13.05Q204.33 13.05 202.76 12.35 201.18 11.65 200.46 10.65 199.73 9.65 199.73 8.8L199.73 8.8Q199.73 6.35 202.43 6.35L202.43 6.35Q203.18 6.35 203.66 6.65 204.13 6.95 204.63 7.5L204.63 7.5Q205.38 8.2 206.01 8.55 206.63 8.9 207.73 8.9L207.73 8.9Q208.58 8.9 209.63 8.2 210.68 7.5 211.68 6 212.68 4.5 213.33 2.25L213.33 2.25 214.58-2.1Z" opacity="1" transform="matrix(1,0,0,1,0,0)" fill="#ffffff" class="undefined-text-0" data-fill-palette-color="quaternary" id="text-0"></path></svg></g></svg></g></svg></g></svg></g><g transform="matrix(1,0,0,1,57.73096375838925,0)"><svg viewBox="0 0 77.49807248322148 61.49807248322147" height="61.49807248322147" width="77.49807248322148"><g><svg xmlns="http://www.w3.org/2000/svg" xmlns:xlink="http://www.w3.org/1999/xlink" version="1.1" x="8.000000000000004" y="0" viewBox="5 5 90 90" enable-background="new 0 0 100 100" xml:space="preserve" height="61.49807248322147" width="61.49807248322147" class="icon-icon-0" data-fill-palette-color="quaternary" id="icon-0"><path fill="#ffffff" d="M95 52c0-12.871-5.692-24.431-14.682-32.318C72.431 10.692 60.871 5 48 5 24.29 5 5 24.29 5 48c0 12.868 5.69 24.426 14.677 32.313C27.564 89.306 39.126 95 52 95c0.084 0 0.166-0.006 0.25-0.006S52.416 95 52.5 95C75.972 95 95 75.972 95 52.5c0-0.084-0.006-0.166-0.006-0.25S95 52.084 95 52zM21.828 73.371c-4.245-5.978-6.77-13.259-6.822-21.121 0.135-20.511 16.732-37.109 37.244-37.244 7.862 0.052 15.144 2.577 21.121 6.822C80.224 28.473 84.5 37.758 84.5 48c0 20.126-16.374 36.5-36.5 36.5C37.758 84.5 28.473 80.224 21.828 73.371zM6 48C6 24.841 24.841 6 48 6c9.858 0 18.926 3.422 26.1 9.13C67.637 11.242 60.076 9 52 9 28.29 9 9 28.29 9 52c0 8.074 2.241 15.633 6.127 22.095C9.421 66.923 6 57.856 6 48zM52 89c-10.08 0-19.227-4.055-25.905-10.615C32.269 82.854 39.838 85.5 48 85.5c20.678 0 37.5-16.822 37.5-37.5 0-8.162-2.646-15.731-7.115-21.905C84.945 32.773 89 41.92 89 52 89 72.402 72.402 89 52 89z" data-fill-palette-color="quaternary"></path></svg></g></svg></g><g><rect width="20.578963758389264" height="4.0129953998174495" y="56.48507708340402" x="135.22903624161074" fill="#e6b17e" data-fill-palette-color="secondary"></rect><rect width="20.578963758389264" height="4.0129953998174495" y="56.48507708340402" x="37.15199999999999" fill="#e6b17e" data-fill-palette-color="secondary"></rect></g></svg></g></svg></g></svg></g><defs></defs></svg><rect width="320" height="360" fill="none" stroke="none" visibility="hidden"></rect></g></svg></g></svg>